<?xml version="1.0" encoding="utf-8"?>
<!-- Generator: Adobe Illustrator 23.0.0, SVG Export Plug-In . SVG Version: 6.00 Build 0)  -->
<svg version="1.1" id="图层_1" xmlns="http://www.w3.org/2000/svg" xmlns:xlink="http://www.w3.org/1999/xlink" x="0px" y="0px"
	 viewBox="0 0 38.2 9" style="enable-background:new 0 0 38.2 9;" xml:space="preserve">
	<defs>
		<style>
			path{
				fill:#011E41;
				opacity:.2;
			}
		</style>
	</defs>
<g>
	<path d="M4.8,2.3C4.5,1.9,3.9,1.7,3.5,1.7C3,1.7,2.2,2,2.2,2.6c0,1.5,3.9,0.6,3.9,3.5c0,1.9-1.5,2.8-3.3,2.8C1.8,8.9,0.8,8.6,0,7.9
		l1.3-1.5c0.4,0.5,1,0.8,1.6,0.8c0.6,0,1.3-0.3,1.3-0.9c0-1.6-4-0.7-4-3.5C0.3,0.9,1.8,0,3.5,0c1,0,1.9,0.3,2.6,0.9L4.8,2.3z"/>
	<path d="M9.2,1.9H6.7V0.2h6.7v1.7H11v6.8H9.2V1.9z"/>
	<path d="M18.5,0c2.7,0,4.6,1.7,4.6,4.5s-1.9,4.5-4.6,4.5S14,7.2,14,4.5S15.9,0,18.5,0z M18.5,7.2c1.6,0,2.6-1.2,2.6-2.7
		s-1-2.7-2.6-2.7s-2.6,1.2-2.6,2.7S16.9,7.2,18.5,7.2z"/>
	<path d="M24.4,0.2h3.3c1.7,0,3.2,0.6,3.2,2.6c0,1.2-0.6,2.1-1.8,2.3l2.2,3.6H29l-1.8-3.4h-0.9v3.4h-1.9V0.2z M26.3,3.7h1.1
		c0.7,0,1.6,0,1.6-0.9c0-0.9-0.8-1-1.5-1h-1.2V3.7z"/>
	<path d="M32.2,0.2H38v1.7h-3.9v1.6h3.7v1.7h-3.7V7h4.1v1.7h-6V0.2z"/>
</g>
</svg>
